<?xml version="1.0" encoding="utf-8"?>
<!-- Generator: Adobe Illustrator 25.0.0, SVG Export Plug-In . SVG Version: 6.00 Build 0)  -->
<svg version="1.1" id="图层_1" xmlns="http://www.w3.org/2000/svg" xmlns:xlink="http://www.w3.org/1999/xlink" x="0px" y="0px"
	 viewBox="0 0 144 144" style="enable-background:new 0 0 144 144;" xml:space="preserve">
<style type="text/css">
	.st0{opacity:0.63;fill:#F7F8F9;enable-background:new    ;}
	.st1{fill:#81BEFF;}
	.st2{fill:#FCFCFC;}
</style>
<circle class="st0" cx="16.73" cy="132.08" r="5.21"/>
<circle class="st1" cx="44.36" cy="132.08" r="5.21"/>
<circle class="st0" cx="72.48" cy="132.08" r="5.21"/>
<circle class="st1" cx="99.88" cy="132.08" r="5.21"/>
<circle class="st0" cx="125.09" cy="132.08" r="5.21"/>
<g>
	<path class="st2" d="M81.36,80.46l-5.28,5.28c-0.91,0.91-2.38,0.91-3.29,0L46.65,59.6c-2.37-2.37-2.37-6.2,0-8.57l0,0
		c2.37-2.37,6.2-2.37,8.57,0l26.14,26.14C82.27,78.08,82.27,79.55,81.36,80.46z"/>
	<path class="st2" d="M97.12,60.06L97.12,60.06c-2.37,2.37-6.2,2.37-8.57,0L65.59,37.1c-0.91-0.91-0.91-2.38,0-3.29l5.28-5.28
		c0.91-0.91,2.38-0.91,3.29,0l22.96,22.96C99.49,53.86,99.49,57.69,97.12,60.06z"/>
	<path class="st2" d="M89.43,8.7L63.51,34.62l8.59,8.59l22.16-22.16l34.5,34.5l-34.5,34.5l-6.75-6.75L74.24,70.02l-8.59,8.59
		l23.78,23.78c2.67,2.67,6.99,2.67,9.66,0l42.01-42.01c2.67-2.67,2.67-6.99,0-9.66L99.09,8.7C96.42,6.04,92.1,6.04,89.43,8.7z"/>
	<path class="st2" d="M15.24,55.77l34.5-34.5l6.75,6.75l13.8,13.8l8.59-8.59l-24.3-24.3c-2.67-2.67-6.99-2.67-9.66,0L2.9,50.94
		c-2.67,2.67-2.67,6.99,0,9.66l42.01,42.01c2.67,2.67,6.99,2.67,9.66,0L80.7,76.48l-8.59-8.58L49.74,90.27L15.24,55.77z"/>
</g>
</svg>
